<svg xmlns="http://www.w3.org/2000/svg" viewBox="0 0 640 520" role="img" aria-labelledby="title desc">
  <title id="title">AI generated portrait celebrating the Luxe Leash Walks story</title>
  <desc id="desc">Dreamlike gradients, constellations, and a mindful walker embracing a dog capture the essence of Luxe Leash Walks.</desc>
  <defs>
    <radialGradient id="aboutBackground" cx="20%" cy="15%" r="90%">
      <stop offset="0%" stop-color="#fff2d8" />
      <stop offset="35%" stop-color="#ffd9ef" />
      <stop offset="70%" stop-color="#d0ddff" />
      <stop offset="100%" stop-color="#cbffe7" />
    </radialGradient>
    <linearGradient id="aurora" x1="0%" x2="100%">
      <stop offset="0%" stop-color="#ff8ba7" />
      <stop offset="50%" stop-color="#6f8bff" />
      <stop offset="100%" stop-color="#5ff2d5" />
    </linearGradient>
    <filter id="stardust" x="-20%" y="-20%" width="140%" height="140%">
      <feTurbulence type="fractalNoise" baseFrequency="0.8" numOctaves="4" seed="42" />
      <feColorMatrix type="matrix" values="0.6 0 0 0 0.2 0 0.6 0 0 0.05 0 0 0.8 0 0.08 0 0 0 0.7 0" />
      <feGaussianBlur stdDeviation="10" />
    </filter>
    <linearGradient id="hug" x1="0%" x2="100%">
      <stop offset="0%" stop-color="#ffcf6c" />
      <stop offset="100%" stop-color="#ff6b6b" />
    </linearGradient>
    <linearGradient id="walker" x1="0%" x2="100%">
      <stop offset="0%" stop-color="#4655ff" />
      <stop offset="100%" stop-color="#ff8ba7" />
    </linearGradient>
  </defs>
  <rect width="640" height="520" fill="url(#aboutBackground)" />
  <g filter="url(#stardust)">
    <path d="M-20 320c90-120 240-200 420-200 180 0 340 100 320 220s-220 160-360 140c-140-20-240-120-280-160Z" fill="url(#aurora)" opacity="0.45" />
  </g>
  <g opacity="0.55">
    <circle cx="110" cy="120" r="42" fill="#ff8ba7" />
    <circle cx="540" cy="110" r="64" fill="#6f8bff" />
    <circle cx="520" cy="360" r="72" fill="#90f2e4" />
  </g>
  <g fill="none" stroke="#ffffff" opacity="0.65" stroke-width="2" stroke-dasharray="1 18">
    <path d="M120 200c80-40 160-60 240-60s160 20 240 60" />
    <path d="M120 240c80-28 160-40 240-40s160 12 240 40" />
    <path d="M120 280c80-16 160-20 240-20s160 4 240 20" />
  </g>
  <g transform="translate(170 170)">
    <path d="M150 270c-18 0-34-8-42-20l-24-38c-8-14-2-32 12-32h42c14 0 26-6 32-16l26-40c8-14 30-14 38 0l26 40c6 10 18 16 32 16h42c14 0 20 18 12 32l-24 38c-8 12-24 20-42 20Z" fill="url(#hug)" stroke="rgba(255, 255, 255, 0.75)" stroke-width="6" stroke-linejoin="round" />
    <circle cx="146" cy="200" r="18" fill="#fff9f0" />
    <path d="M210 230l120-66" fill="none" stroke="#4655ff" stroke-width="8" stroke-linecap="round" stroke-dasharray="8 18" />
    <circle cx="258" cy="94" r="32" fill="url(#walker)" opacity="0.9" />
    <path d="M258 120c20 24 28 56 26 92l-12 70" fill="none" stroke="url(#walker)" stroke-width="10" stroke-linecap="round" />
    <path d="M238 198l-50 74" fill="none" stroke="url(#walker)" stroke-width="9" stroke-linecap="round" />
    <path d="M276 202l52 78" fill="none" stroke="url(#walker)" stroke-width="9" stroke-linecap="round" />
  </g>
  <g opacity="0.4" stroke="#ffffff" stroke-width="1.8">
    <circle cx="140" cy="80" r="6" fill="#fff" />
    <circle cx="200" cy="60" r="4" fill="#fff" />
    <circle cx="460" cy="76" r="5" fill="#fff" />
    <circle cx="420" cy="420" r="6" fill="#fff" />
    <circle cx="220" cy="420" r="5" fill="#fff" />
  </g>
</svg>
