<svg xmlns="http://www.w3.org/2000/svg" viewBox="0 0 420 420" role="img" aria-label="AI generated Luxe Leash Walk moment">
  <defs>
    <linearGradient id="bg" x1="0%" y1="0%" x2="100%" y2="100%">
      <stop offset="0%" stop-color="#ffeef7" />
      <stop offset="50%" stop-color="#f3f8ff" />
      <stop offset="100%" stop-color="#d4fff4" />
    </linearGradient>
    <filter id="texture" x="-20%" y="-20%" width="140%" height="140%">
      <feTurbulence type="fractalNoise" baseFrequency="0.9" numOctaves="4" seed="56" />
      <feColorMatrix type="matrix" values="0.65 0 0 0 0.1 0 0.65 0 0 0.08 0 0 0.75 0 0.12 0 0 0 0.75 0" />
      <feGaussianBlur stdDeviation="8" />
    </filter>
    <linearGradient id="leash" x1="0%" x2="100%">
      <stop offset="0%" stop-color="#ffcf6c" />
      <stop offset="100%" stop-color="#ff7fa3" />
    </linearGradient>
    <linearGradient id="walker" x1="0%" x2="100%">
      <stop offset="0%" stop-color="#4655ff" />
      <stop offset="100%" stop-color="#7ad3ff" />
    </linearGradient>
  </defs>
  <rect width="420" height="420" fill="url(#bg)" />
  <rect width="420" height="420" fill="url(#bg)" filter="url(#texture)" opacity="0.55" />
  <g opacity="0.6">
    <circle cx="120" cy="120" r="70" fill="rgba(255, 143, 177, 0.35)" />
    <circle cx="320" cy="100" r="80" fill="rgba(124, 139, 255, 0.3)" />
    <circle cx="280" cy="320" r="90" fill="rgba(95, 242, 213, 0.35)" />
  </g>
  <g transform="translate(90 150)">
    <path d="M92 140c-10 0-20-6-24-12l-16-24c-6-10-2-22 8-22h26c8 0 16-4 20-10l20-30c6-10 22-10 28 0l20 30c4 6 12 10 20 10h26c10 0 14 12 8 22l-16 24c-6 8-16 12-26 12Z" fill="url(#leash)" stroke="rgba(255, 255, 255, 0.7)" stroke-width="5" stroke-linejoin="round" />
    <circle cx="94" cy="84" r="14" fill="#fff7ef" />
    <path d="M140 112l92-54" fill="none" stroke="url(#walker)" stroke-width="6" stroke-linecap="round" stroke-dasharray="6 18" />
    <circle cx="174" cy="12" r="22" fill="#4655ff" opacity="0.9" />
    <path d="M174 36c16 20 22 46 20 74l-10 60" fill="none" stroke="#4655ff" stroke-width="8" stroke-linecap="round" />
    <path d="M154 116l-44 64" fill="none" stroke="#4655ff" stroke-width="7" stroke-linecap="round" />
    <path d="M194 118l48 64" fill="none" stroke="#4655ff" stroke-width="7" stroke-linecap="round" />
  </g>
</svg>
